<svg width="13" height="13" viewBox="0 0 13 13" fill="none" xmlns="http://www.w3.org/2000/svg">
<g clip-path="url(#clip0_54_720)">
<path d="M6.90625 4.55005C6.90625 4.4423 6.86345 4.33897 6.78726 4.26279C6.71108 4.1866 6.60774 4.1438 6.5 4.1438C6.39226 4.1438 6.28892 4.1866 6.21274 4.26279C6.13655 4.33897 6.09375 4.4423 6.09375 4.55005V6.9063H3.65625C3.54851 6.9063 3.44517 6.9491 3.36899 7.02529C3.2928 7.10147 3.25 7.2048 3.25 7.31255C3.25 7.42029 3.2928 7.52362 3.36899 7.59981C3.44517 7.676 3.54851 7.7188 3.65625 7.7188H6.5C6.60774 7.7188 6.71108 7.676 6.78726 7.59981C6.86345 7.52362 6.90625 7.42029 6.90625 7.31255V4.55005Z" fill="#A5A5A5"/>
<path d="M5.28128 0.8125C5.28128 0.704756 5.32408 0.601425 5.40027 0.525238C5.47645 0.449051 5.57978 0.40625 5.68753 0.40625H7.31253C7.42027 0.40625 7.5236 0.449051 7.59979 0.525238C7.67598 0.601425 7.71878 0.704756 7.71878 0.8125C7.71878 0.920244 7.67598 1.02358 7.59979 1.09976C7.5236 1.17595 7.42027 1.21875 7.31253 1.21875V1.68187C8.41753 1.84112 9.42015 2.31563 10.2245 3.01437L10.2343 3.00381L10.5219 2.71619L10.2343 2.42937C10.158 2.3532 10.1151 2.24984 10.115 2.14204C10.1149 2.03423 10.1577 1.93081 10.2339 1.85453C10.31 1.77825 10.4134 1.73535 10.5212 1.73527C10.629 1.7352 10.7324 1.77795 10.8087 1.85413L11.9576 3.00381C11.9964 3.04129 12.0273 3.08612 12.0486 3.13568C12.0699 3.18524 12.0811 3.23855 12.0816 3.29249C12.0821 3.34643 12.0718 3.39993 12.0514 3.44986C12.0309 3.49978 12.0008 3.54514 11.9626 3.58329C11.9245 3.62143 11.8791 3.65159 11.8292 3.67202C11.7793 3.69245 11.7258 3.70273 11.6718 3.70226C11.6179 3.70179 11.5646 3.69058 11.515 3.66929C11.4655 3.648 11.4206 3.61705 11.3832 3.57825L11.0963 3.29063L10.8087 3.57825L10.7982 3.588C11.6254 4.54297 12.1112 5.74623 12.1787 7.00789C12.2463 8.26955 11.8918 9.51779 11.1712 10.5556C10.4506 11.5935 9.40497 12.3618 8.19926 12.7395C6.99354 13.1171 5.69641 13.0825 4.51254 12.6411C3.32867 12.1998 2.32547 11.3768 1.66123 10.302C0.996997 9.22722 0.709551 7.96187 0.844251 6.7056C0.97895 5.44933 1.52813 4.27368 2.40512 3.36416C3.28212 2.45464 4.437 1.86303 5.68753 1.68269V1.21875C5.57978 1.21875 5.47645 1.17595 5.40027 1.09976C5.32408 1.02358 5.28128 0.920244 5.28128 0.8125ZM6.50003 2.4375C5.85984 2.43755 5.22592 2.5637 4.63448 2.80874C4.04304 3.05378 3.50565 3.41292 3.053 3.86564C2.13884 4.77996 1.62533 6.01998 1.62544 7.31291C1.62554 8.60584 2.13926 9.84577 3.05358 10.7599C3.96789 11.6741 5.20791 12.1876 6.50084 12.1875C7.79377 12.1874 9.0337 11.6737 9.94787 10.7594C10.862 9.84504 11.3755 8.60502 11.3754 7.31209C11.3753 6.01916 10.8616 4.77923 9.94729 3.86507C9.03298 2.9509 7.79296 2.43739 6.50003 2.4375Z" fill="#A5A5A5"/>
</g>
<defs>
<clipPath id="clip0_54_720">
<rect width="13" height="13" fill="white"/>
</clipPath>
</defs>
</svg>
